<?xml version="1.0" encoding="UTF-8"?>
<svg xmlns="http://www.w3.org/2000/svg" width="281" height="158.804" viewBox="0 0 281 158.804">
    <g transform="translate(-7.341 -2.671)">
        <path d="M389.094,135.8a22.812,22.812,0,0,0,9-1.589,12.53,12.53,0,0,0,5.566-4.283,10.331,10.331,0,0,0,1.863-6.023,8.59,8.59,0,0,0-2.037-6.046,11.814,11.814,0,0,0-4.815-3.2,45.9,45.9,0,0,0-6.8-1.739,28.384,28.384,0,0,1-4.482-1.135q-1.364-.53-1.363-1.586,0-2.217,4.586-2.217a21.865,21.865,0,0,1,9.826,2.62l3.58-8.617a22.343,22.343,0,0,0-6.172-2.293,32.688,32.688,0,0,0-7.135-.78,23.142,23.142,0,0,0-9,1.562,12.309,12.309,0,0,0-5.566,4.285,10.438,10.438,0,0,0-1.864,6.046,8.733,8.733,0,0,0,2.016,6.071,11.587,11.587,0,0,0,4.738,3.227,51.89,51.89,0,0,0,6.8,1.839,30.258,30.258,0,0,1,4.563,1.209q1.384.558,1.384,1.665a1.541,1.541,0,0,1-1.057,1.435,9.307,9.307,0,0,1-3.528.479,22.011,22.011,0,0,1-6-.883,24.284,24.284,0,0,1-5.645-2.342l-3.83,8.667a22.846,22.846,0,0,0,6.827,2.646A37.041,37.041,0,0,0,389.094,135.8Z"
              transform="translate(-241.658 -63.477)" fill="#fff"/>
        <path d="M496.664,126.171a7.542,7.542,0,0,1-4-1.085,7.74,7.74,0,0,1-2.848-3.073,10.78,10.78,0,0,1,0-9.322,7.757,7.757,0,0,1,2.848-3.076,7.952,7.952,0,0,1,8.012,0,7.774,7.774,0,0,1,2.849,3.076,10.805,10.805,0,0,1,0,9.322,7.757,7.757,0,0,1-2.849,3.073A7.555,7.555,0,0,1,496.664,126.171Zm0,9.626a21.778,21.778,0,0,0,10.234-2.369,18.089,18.089,0,0,0,0-32.154,23.3,23.3,0,0,0-20.461,0,18.082,18.082,0,0,0,0,32.154A21.761,21.761,0,0,0,496.664,135.8Z"
              transform="translate(-309.619 -63.476)" fill="#fff"/>
        <path
              d="M624.427,126.171a7.562,7.562,0,0,1-4.008-1.085,7.754,7.754,0,0,1-2.846-3.073,10.827,10.827,0,0,1,0-9.322,7.771,7.771,0,0,1,2.846-3.076,7.96,7.96,0,0,1,8.017,0,7.772,7.772,0,0,1,2.846,3.076,10.783,10.783,0,0,1,0,9.322,7.754,7.754,0,0,1-2.846,3.073A7.571,7.571,0,0,1,624.427,126.171Zm0,9.626a21.792,21.792,0,0,0,10.232-2.369,18.087,18.087,0,0,0,0-32.154,23.3,23.3,0,0,0-20.461,0,18.087,18.087,0,0,0,0,32.154A21.764,21.764,0,0,0,624.427,135.8Z"
              transform="translate(-393.889 -63.476)" fill="#fff"/>
        <path              d="M751.91,118.708h-4.334v-8.263h4.334a5.3,5.3,0,0,1,3.631,1.083,4.45,4.45,0,0,1,0,6.1A5.294,5.294,0,0,1,751.91,118.708Zm.757-17.437H735.686v35.278h11.889v-8.669h5.092a20.793,20.793,0,0,0,8.515-1.613,12.7,12.7,0,0,0,0-23.384A20.8,20.8,0,0,0,752.667,101.271Z"
              transform="translate(-480.401 -65.035)" fill="#fff"/>
        <path              d="M496.961,273.2h1.991c.218,0,.327-.119.327-.357v-4.526a1.467,1.467,0,0,1,.435-1.206,1.5,1.5,0,0,1,.965-.35,1.316,1.316,0,0,1,1.073.381,1.87,1.87,0,0,1,.311,1.19v4.542a.289.289,0,0,0,.326.327h1.976q.327,0,.327-.357v-4.713q0-3.5-3.049-3.5a2.982,2.982,0,0,0-2.566,1.213l-.3-.638a1.091,1.091,0,0,0-.218-.334.466.466,0,0,0-.326-.1h-1.213q-.389,0-.389.358v7.746A.289.289,0,0,0,496.961,273.2Zm-6.088-1.991a1.224,1.224,0,0,1-1.19-.567,3.4,3.4,0,0,1-.3-1.579,3.076,3.076,0,0,1,.357-1.664,1.343,1.343,0,0,1,1.213-.545,1.293,1.293,0,0,1,1.042.42,1.848,1.848,0,0,1,.358,1.228v1.011a1.9,1.9,0,0,1-.373,1.244A1.347,1.347,0,0,1,490.873,271.207Zm-.606,2.162a2.485,2.485,0,0,0,1.408-.4,2.434,2.434,0,0,0,.832-.832l.373.7a.854.854,0,0,0,.194.272.463.463,0,0,0,.3.085h1.291a.3.3,0,0,0,.342-.342v-3.889a4.51,4.51,0,0,0-1.034-3.345,4.25,4.25,0,0,0-3.057-1,4.089,4.089,0,0,0-3.142,1.135,4.716,4.716,0,0,0-1.057,3.328,5.011,5.011,0,0,0,.879,3.15A3.171,3.171,0,0,0,490.267,273.369Zm-7.6-5.071h-2.3a1.536,1.536,0,0,1,.42-1.058,1.452,1.452,0,0,1,1.073-.388,1.372,1.372,0,0,1,.926.256,1.087,1.087,0,0,1,.288.847C483.076,268.184,482.941,268.3,482.671,268.3Zm-.591,5.086a7.591,7.591,0,0,0,2.986-.419.518.518,0,0,0,.218-.179.55.55,0,0,0,.062-.288v-1.384q0-.311-.28-.311a.634.634,0,0,0-.249.062,7.346,7.346,0,0,1-2.582.389,2.221,2.221,0,0,1-1.377-.365,1.3,1.3,0,0,1-.49-1.066h3.313a2.713,2.713,0,0,0,1.431-.3,1.191,1.191,0,0,0,.482-1.1v-.234a3.5,3.5,0,0,0-.933-2.731,4.1,4.1,0,0,0-2.8-.831,4.052,4.052,0,0,0-3.127,1.128,4.782,4.782,0,0,0-1.042,3.352,4.363,4.363,0,0,0,1.057,3.251A4.641,4.641,0,0,0,482.08,273.385Zm-8.213,0a6.453,6.453,0,0,0,2.582-.419.33.33,0,0,0,.178-.149.547.547,0,0,0,.039-.225v-1.57c-.021-.156-.1-.234-.234-.234a.711.711,0,0,0-.249.047,6.692,6.692,0,0,1-1.236.256,9.914,9.914,0,0,1-1.065.07,1.717,1.717,0,0,1-1.424-.521,2.644,2.644,0,0,1-.412-1.641,2.264,2.264,0,0,1,.5-1.548,1.942,1.942,0,0,1,1.54-.568,5.454,5.454,0,0,1,.91.078,10.407,10.407,0,0,1,1.143.279.6.6,0,0,0,.265.047.255.255,0,0,0,.187-.078.239.239,0,0,0,.078-.171v-1.6a.382.382,0,0,0-.218-.342,6.453,6.453,0,0,0-2.847-.466,3.958,3.958,0,0,0-3.22,1.2,4.779,4.779,0,0,0-1,3.157,5.291,5.291,0,0,0,.583,2.715,3,3,0,0,0,1.555,1.33A6.8,6.8,0,0,0,473.868,273.385Zm-8.634-6.377v1.307a3.193,3.193,0,0,1-.536,2.084,1.991,1.991,0,0,1-1.595.622,2.239,2.239,0,0,1-1.665-.568,2.982,2.982,0,0,1-.56-2.092v-1.478a4.132,4.132,0,0,1,.264-1.656,1.557,1.557,0,0,1,.739-.809,2.851,2.851,0,0,1,1.221-.225,2,2,0,0,1,1.61.614A3.479,3.479,0,0,1,465.234,267.007Zm-2.131-5.18q-2.784,0-3.912,1.314a5.684,5.684,0,0,0-1.128,3.8v1.369a5.667,5.667,0,0,0,1.112,3.74q1.112,1.33,3.85,1.33a6.2,6.2,0,0,0,3-.615,3.42,3.42,0,0,0,1.563-1.757,7.615,7.615,0,0,0,.459-2.823V267.1a6,6,0,0,0-1.12-3.935A4.755,4.755,0,0,0,463.1,261.828ZM445,273.2h1.991q.327,0,.326-.357v-4.526a1.467,1.467,0,0,1,.435-1.206,1.5,1.5,0,0,1,.965-.35,1.316,1.316,0,0,1,1.073.381,1.87,1.87,0,0,1,.311,1.19v4.542a.289.289,0,0,0,.326.327H452.4q.327,0,.327-.357v-4.713q0-3.5-3.049-3.5a2.982,2.982,0,0,0-2.566,1.213l-.3-.638a1.1,1.1,0,0,0-.218-.334.466.466,0,0,0-.326-.1H445.06q-.389,0-.389.358v7.746A.289.289,0,0,0,445,273.2Zm-6.087-1.991a1.223,1.223,0,0,1-1.19-.567,3.392,3.392,0,0,1-.3-1.579,3.076,3.076,0,0,1,.357-1.664,1.343,1.343,0,0,1,1.213-.545,1.293,1.293,0,0,1,1.042.42,1.848,1.848,0,0,1,.358,1.228v1.011a1.893,1.893,0,0,1-.374,1.244A1.348,1.348,0,0,1,438.91,271.207Zm-.607,2.162a2.485,2.485,0,0,0,1.408-.4,2.431,2.431,0,0,0,.832-.832l.373.7a.854.854,0,0,0,.194.272.464.464,0,0,0,.3.085h1.291a.3.3,0,0,0,.342-.342v-3.889a4.51,4.51,0,0,0-1.034-3.345,4.25,4.25,0,0,0-3.057-1,4.088,4.088,0,0,0-3.142,1.135,4.714,4.714,0,0,0-1.058,3.328,5.013,5.013,0,0,0,.879,3.15A3.171,3.171,0,0,0,438.3,273.369Zm-12.07-4.806a1.038,1.038,0,0,1-.739-.242.944.944,0,0,1-.256-.723.86.86,0,0,1,.3-.708,1.241,1.241,0,0,1,.809-.241.99.99,0,0,1,.707.241.9.9,0,0,1,.257.692Q427.307,268.563,426.234,268.563Zm-.062,7.746a5.738,5.738,0,0,0,3.22-.685,2.319,2.319,0,0,0,.964-2.021,2.031,2.031,0,0,0-1.82-2.178l-2.613-.5a.761.761,0,0,1-.272-.085.2.2,0,0,1-.086-.179q0-.295.622-.3c.228,0,.4-.006.513-.016a3.817,3.817,0,0,0,2.232-.754,2.367,2.367,0,0,0,.8-1.936,2.4,2.4,0,0,0-1.415-2.194,3.424,3.424,0,0,0,.761.078,1.3,1.3,0,0,0,.972-.358,1.384,1.384,0,0,0,.35-1.011,4.573,4.573,0,0,0-.109-1.151.423.423,0,0,0-.156-.272.542.542,0,0,0-.3-.069h-1.477a.317.317,0,0,0-.358.358,1.388,1.388,0,0,0,.016.21c.01.068.021.138.031.21a5.49,5.49,0,0,1,.094.669.586.586,0,0,1-.156.444.705.705,0,0,1-.5.148h-1.011a4.614,4.614,0,0,0-2.73.7,2.847,2.847,0,0,0-.536,3.656,2.925,2.925,0,0,0,1.229.979,2.243,2.243,0,0,0-.825.56,1.4,1.4,0,0,0-.42,1.027,1.268,1.268,0,0,0,.334.9,1.533,1.533,0,0,0,.91.451l2.722.435a1.2,1.2,0,0,1,.4.109.219.219,0,0,1,.1.2q0,.2-.366.3a3.666,3.666,0,0,1-.894.093,10.2,10.2,0,0,1-1.509-.109q-.732-.109-1.555-.28a1.725,1.725,0,0,0-.373-.063.283.283,0,0,0-.2.094.279.279,0,0,0-.094.2v1.493a.589.589,0,0,0,.054.264.446.446,0,0,0,.226.187,5.747,5.747,0,0,0,1.431.288A17.159,17.159,0,0,0,426.171,276.309ZM413.824,273.2h1.991q.327,0,.326-.357v-4.526a1.466,1.466,0,0,1,.435-1.206,1.5,1.5,0,0,1,.964-.35,1.316,1.316,0,0,1,1.073.381,1.87,1.87,0,0,1,.311,1.19v4.542a.288.288,0,0,0,.326.327h1.975q.327,0,.327-.357v-4.713q0-3.5-3.048-3.5a2.981,2.981,0,0,0-2.566,1.213l-.3-.638a1.1,1.1,0,0,0-.218-.334.467.467,0,0,0-.327-.1h-1.213q-.389,0-.389.358v7.746A.289.289,0,0,0,413.824,273.2Zm-4.4-9.348h2.209q.327,0,.327-.357v-1.9c0-.249-.109-.373-.327-.373h-2.209c-.218,0-.326.114-.326.342v1.945C409.1,263.736,409.205,263.849,409.423,263.849Zm.125,9.348h1.96q.327,0,.327-.357v-7.7c0-.249-.109-.373-.327-.373h-1.96q-.327,0-.326.342v7.761A.289.289,0,0,0,409.547,273.2Zm-5.974-2.084a1.232,1.232,0,0,1-.972-.413,1.589,1.589,0,0,1-.366-1.1v-1.26a1.555,1.555,0,0,1,.412-1.174,1.453,1.453,0,0,1,1.05-.4,1.214,1.214,0,0,1,1.206.575,3.23,3.23,0,0,1,.288,1.447,3.646,3.646,0,0,1-.327,1.727A1.342,1.342,0,0,1,403.573,271.114Zm-3.671,5.2h1.991q.327,0,.326-.342v-3a2.6,2.6,0,0,0,1.649.373,3.635,3.635,0,0,0,3.064-1.19,5.324,5.324,0,0,0,.918-3.321,4.868,4.868,0,0,0-.886-3.1,3.2,3.2,0,0,0-2.675-1.12,2.63,2.63,0,0,0-1.322.327,2.438,2.438,0,0,0-.918.917l-.419-.824a.444.444,0,0,0-.163-.2.637.637,0,0,0-.319-.062h-1.2c-.155,0-.257.036-.3.109a.481.481,0,0,0-.07.264v10.81Q399.575,276.308,399.9,276.309Zm-6.11-5.1a1.223,1.223,0,0,1-1.19-.567,3.392,3.392,0,0,1-.3-1.579,3.075,3.075,0,0,1,.357-1.664,1.342,1.342,0,0,1,1.213-.545,1.293,1.293,0,0,1,1.042.42,1.848,1.848,0,0,1,.358,1.228v1.011a1.9,1.9,0,0,1-.373,1.244A1.347,1.347,0,0,1,393.792,271.207Zm-.606,2.162a2.485,2.485,0,0,0,1.408-.4,2.433,2.433,0,0,0,.832-.832l.373.7a.854.854,0,0,0,.194.272.463.463,0,0,0,.3.085h1.291a.3.3,0,0,0,.342-.342v-3.889a4.51,4.51,0,0,0-1.034-3.345,4.251,4.251,0,0,0-3.057-1,4.088,4.088,0,0,0-3.142,1.135,4.715,4.715,0,0,0-1.058,3.328,5.011,5.011,0,0,0,.879,3.15A3.171,3.171,0,0,0,393.186,273.369Zm-12.615-.171h1.991q.327,0,.326-.357v-4.869a1.077,1.077,0,0,1,.459-.98,1.768,1.768,0,0,1,.972-.3,1.24,1.24,0,0,1,1.057.4,2.048,2.048,0,0,1,.3,1.221v4.557a.289.289,0,0,0,.326.327h1.975q.327,0,.327-.357v-4.713q0-3.5-3.049-3.5a4.047,4.047,0,0,0-1.291.2,2.265,2.265,0,0,0-1.089.855v-3.8q0-.357-.326-.358h-1.975q-.327,0-.327.342v11A.289.289,0,0,0,380.571,273.2Zm-6.528.187a6.179,6.179,0,0,0,3.484-.84,2.914,2.914,0,0,0,1.244-2.6,4.024,4.024,0,0,0-.21-1.4,2.247,2.247,0,0,0-.747-.98,5.337,5.337,0,0,0-1.532-.761l-1.882-.638a2.443,2.443,0,0,1-.824-.388.78.78,0,0,1-.233-.623q0-.917,1.509-.917a10.393,10.393,0,0,1,1.726.147,9.173,9.173,0,0,1,1.369.319,1.047,1.047,0,0,0,.327.063.253.253,0,0,0,.187-.078.238.238,0,0,0,.078-.171v-1.773a.469.469,0,0,0-.062-.234.346.346,0,0,0-.187-.155,7.623,7.623,0,0,0-1.82-.42,15.2,15.2,0,0,0-1.617-.109,5.4,5.4,0,0,0-3.119.809,3.494,3.494,0,0,0-.614,4.511,3.122,3.122,0,0,0,1.555,1.058l2.442.824a1.872,1.872,0,0,1,.692.35.828.828,0,0,1,.179.6.8.8,0,0,1-.5.777,2.962,2.962,0,0,1-1.26.234,11.473,11.473,0,0,1-3.329-.622.588.588,0,0,0-.218-.032.28.28,0,0,0-.194.078.229.229,0,0,0-.085.171v1.789a.412.412,0,0,0,.234.388,7.947,7.947,0,0,0,1.431.42A9.369,9.369,0,0,0,374.043,273.385Z"
              transform="translate(-239.469 -170.534)" fill="#fff"/>
        <path              d="M480.051,330.8a4.482,4.482,0,0,0,2.753-.723,2.457,2.457,0,0,0,.949-2.077,2.273,2.273,0,0,0-.49-1.524,3.155,3.155,0,0,0-1.563-.886q-.373-.14-1.136-.358a3.057,3.057,0,0,1-.692-.3.409.409,0,0,1-.178-.358q0-.419.964-.419a9.638,9.638,0,0,1,2.349.342,2.2,2.2,0,0,0,.3.047.257.257,0,0,0,.179-.063.182.182,0,0,0,.07-.14v-1.494a.379.379,0,0,0-.218-.342,6.972,6.972,0,0,0-2.893-.467,3.921,3.921,0,0,0-2.458.708,2.281,2.281,0,0,0-.918,1.906,2.436,2.436,0,0,0,.467,1.555,3.372,3.372,0,0,0,1.54.98l1.182.373a2.607,2.607,0,0,1,.754.288.378.378,0,0,1,.179.3q0,.514-1.136.529a6.825,6.825,0,0,1-1.221-.124,9.456,9.456,0,0,1-1.283-.327,2.2,2.2,0,0,0-.28-.047.27.27,0,0,0-.171.062.179.179,0,0,0-.078.14v1.6a.458.458,0,0,0,.063.234.221.221,0,0,0,.155.125,5.46,5.46,0,0,0,1.237.342A10.072,10.072,0,0,0,480.051,330.8Zm-7.113-5.087h-2.3a1.537,1.537,0,0,1,.42-1.057,1.453,1.453,0,0,1,1.073-.389,1.378,1.378,0,0,1,.926.256,1.089,1.089,0,0,1,.288.848Q473.342,325.716,472.938,325.715Zm-.591,5.087a7.571,7.571,0,0,0,2.986-.42.518.518,0,0,0,.218-.179.549.549,0,0,0,.062-.287v-1.384c0-.207-.093-.311-.28-.311a.63.63,0,0,0-.249.063,7.344,7.344,0,0,1-2.582.389,2.221,2.221,0,0,1-1.377-.366,1.3,1.3,0,0,1-.49-1.065h3.313a2.721,2.721,0,0,0,1.431-.3,1.193,1.193,0,0,0,.482-1.1v-.234a3.5,3.5,0,0,0-.933-2.729,4.1,4.1,0,0,0-2.8-.832A4.054,4.054,0,0,0,469,323.173a4.782,4.782,0,0,0-1.042,3.352,4.361,4.361,0,0,0,1.057,3.251A4.638,4.638,0,0,0,472.347,330.8Zm-8.152-9.535H466.4q.327,0,.327-.358v-1.9c0-.248-.109-.373-.327-.373h-2.208c-.218,0-.327.115-.327.343v1.944Q463.868,321.267,464.195,321.267Zm.124,9.348h1.96q.327,0,.327-.358v-7.7q0-.374-.327-.373h-1.96q-.327,0-.327.342v7.762A.289.289,0,0,0,464.319,330.616Zm-4.038.171a8.535,8.535,0,0,0,1.151-.086,3.6,3.6,0,0,0,1-.257.379.379,0,0,0,.194-.171.659.659,0,0,0,.039-.248v-1.509c-.01-.166-.093-.25-.249-.25a1.037,1.037,0,0,0-.3.047,4.336,4.336,0,0,1-.638.155,3.668,3.668,0,0,1-.622.063.753.753,0,0,1-.436-.117.425.425,0,0,1-.171-.38V324.3h2.084q.327,0,.327-.358v-1.384c0-.238-.109-.358-.327-.358H460.25v-1.757q0-.357-.326-.358h-1.975q-.311,0-.311.342V322.2h-1.416a.288.288,0,0,0-.326.326v1.447a.289.289,0,0,0,.326.327h1.416v4.2Q457.637,330.786,460.281,330.787Zm-7.735-9.52h2.209q.327,0,.327-.358v-1.9c0-.248-.109-.373-.327-.373h-2.209c-.218,0-.326.115-.326.343v1.944Q452.22,321.267,452.546,321.267Zm.125,9.348h1.96q.327,0,.327-.358v-7.7q0-.374-.327-.373h-1.96q-.327,0-.326.342v7.762A.289.289,0,0,0,452.671,330.616Zm-3.417.171a5.248,5.248,0,0,0,1.835-.234.419.419,0,0,0,.28-.451V328.64q0-.295-.311-.3a.444.444,0,0,0-.2.047,3.4,3.4,0,0,1-.886.109q-.514,0-.513-.42v-8.757a.4.4,0,0,0-.085-.288.306.306,0,0,0-.226-.085h-1.991q-.311,0-.312.327v9.208Q446.842,330.786,449.253,330.787Zm-6.471-9.52h2.209q.327,0,.326-.358v-1.9c0-.248-.109-.373-.326-.373h-2.209c-.218,0-.326.115-.326.343v1.944Q442.456,321.267,442.783,321.267Zm.124,9.348h1.96q.327,0,.327-.358v-7.7q0-.374-.327-.373h-1.96q-.327,0-.327.342v7.762A.289.289,0,0,0,442.907,330.616Zm-5.966-2.038a1.294,1.294,0,0,1-.933-.4,1.423,1.423,0,0,1-.4-1.066V325.7a1.421,1.421,0,0,1,.412-1.05,1.4,1.4,0,0,1,1.035-.412,1.242,1.242,0,0,1,1.2.568,3.123,3.123,0,0,1,.311,1.5,3.29,3.29,0,0,1-.35,1.727A1.392,1.392,0,0,1,436.941,328.577Zm.622,2.21a3.068,3.068,0,0,0,2.893-1.3,6.328,6.328,0,0,0,.762-3.243,5.169,5.169,0,0,0-.824-3.01,2.906,2.906,0,0,0-2.566-1.19,3.178,3.178,0,0,0-1.283.241,2.2,2.2,0,0,0-.957.879v-3.858q0-.357-.342-.357H433.27q-.327,0-.327.342v10.966q0,.359.327.358h1.306a.412.412,0,0,0,.42-.249l.4-.762a2.282,2.282,0,0,0,.925.879A2.66,2.66,0,0,0,437.563,330.787Zm-8.717-9.52h2.208q.327,0,.327-.358v-1.9c0-.248-.109-.373-.327-.373h-2.208c-.218,0-.327.115-.327.343v1.944Q428.52,321.267,428.846,321.267Zm.124,9.348h1.96q.327,0,.327-.358v-7.7q0-.374-.327-.373h-1.96q-.327,0-.326.342v7.762A.289.289,0,0,0,428.97,330.616Zm-5.418.186a4.483,4.483,0,0,0,2.753-.723,2.457,2.457,0,0,0,.949-2.077,2.275,2.275,0,0,0-.49-1.524,3.155,3.155,0,0,0-1.563-.886q-.373-.14-1.136-.358a3.056,3.056,0,0,1-.692-.3.409.409,0,0,1-.178-.358q0-.419.964-.419a9.64,9.64,0,0,1,2.349.342,2.194,2.194,0,0,0,.3.047.258.258,0,0,0,.179-.063.182.182,0,0,0,.07-.14v-1.494a.379.379,0,0,0-.218-.342,6.972,6.972,0,0,0-2.893-.467,3.921,3.921,0,0,0-2.457.708,2.281,2.281,0,0,0-.918,1.906,2.436,2.436,0,0,0,.467,1.555,3.371,3.371,0,0,0,1.54.98l1.182.373a2.609,2.609,0,0,1,.754.288.378.378,0,0,1,.179.3q0,.514-1.136.529a6.824,6.824,0,0,1-1.221-.124,9.457,9.457,0,0,1-1.283-.327,2.2,2.2,0,0,0-.28-.047.271.271,0,0,0-.171.062.179.179,0,0,0-.078.14v1.6a.458.458,0,0,0,.063.234.222.222,0,0,0,.155.125,5.461,5.461,0,0,0,1.237.342A10.074,10.074,0,0,0,423.552,330.8Zm-7.859,0a4.482,4.482,0,0,0,2.753-.723,2.457,2.457,0,0,0,.949-2.077,2.273,2.273,0,0,0-.49-1.524,3.153,3.153,0,0,0-1.563-.886q-.373-.14-1.136-.358a3.045,3.045,0,0,1-.692-.3.409.409,0,0,1-.179-.358q0-.419.964-.419a9.638,9.638,0,0,1,2.349.342,2.2,2.2,0,0,0,.3.047.257.257,0,0,0,.179-.063.182.182,0,0,0,.07-.14v-1.494a.379.379,0,0,0-.218-.342,6.972,6.972,0,0,0-2.893-.467,3.921,3.921,0,0,0-2.458.708,2.281,2.281,0,0,0-.917,1.906,2.436,2.436,0,0,0,.466,1.555,3.374,3.374,0,0,0,1.54.98l1.182.373a2.6,2.6,0,0,1,.754.288.377.377,0,0,1,.179.3q0,.514-1.136.529a6.825,6.825,0,0,1-1.221-.124,9.456,9.456,0,0,1-1.283-.327,2.2,2.2,0,0,0-.28-.047.271.271,0,0,0-.171.062.18.18,0,0,0-.078.14v1.6a.459.459,0,0,0,.063.234.221.221,0,0,0,.156.125,5.454,5.454,0,0,0,1.236.342A10.069,10.069,0,0,0,415.692,330.8Zm-8.346-2.068a1.37,1.37,0,0,1-1.167-.514,2.991,2.991,0,0,1-.389-1.757,3.183,3.183,0,0,1,.389-1.812,1.364,1.364,0,0,1,1.183-.537,1.271,1.271,0,0,1,1.158.575,3.346,3.346,0,0,1,.365,1.758,3.231,3.231,0,0,1-.365,1.711A1.286,1.286,0,0,1,407.346,328.734Zm.016,2.068a4.5,4.5,0,0,0,3.1-1,4.29,4.29,0,0,0,1.12-3.344,4.574,4.574,0,0,0-1.065-3.368,4.288,4.288,0,0,0-3.134-1.05,4.559,4.559,0,0,0-3.189,1.012,4.45,4.45,0,0,0-1.1,3.407,4.332,4.332,0,0,0,1.1,3.328A4.539,4.539,0,0,0,407.362,330.8Zm-9.837-6.175h-1.073V321.7h1.073a5.372,5.372,0,0,1,.98.069.961.961,0,0,1,.583.35,1.379,1.379,0,0,1,.226.871v.109a2.439,2.439,0,0,1-.125.863.905.905,0,0,1-.513.49A2.989,2.989,0,0,1,397.525,324.627Zm-3.562,5.988h2.146q.342,0,.342-.358v-3.312h1.26a8.115,8.115,0,0,0,2.388-.3,2.631,2.631,0,0,0,1.477-1.143,4.563,4.563,0,0,0,.536-2.434v-.264a3.4,3.4,0,0,0-.645-2.279,2.776,2.776,0,0,0-1.586-.926,12.572,12.572,0,0,0-2.373-.186h-2.255a2.045,2.045,0,0,0-.645.125,1.51,1.51,0,0,0-.669.49,1.575,1.575,0,0,0-.3,1.034v9.24Q393.637,330.616,393.963,330.616Zm-9.939,0h1.96q.327,0,.326-.358V324.3h2.146q.327,0,.327-.374v-1.369q0-.374-.327-.373h-2.146v-.342a.62.62,0,0,1,.233-.567,1.487,1.487,0,0,1,.731-.163,6.859,6.859,0,0,1,.809.062,2.452,2.452,0,0,0,.389.047.311.311,0,0,0,.218-.086.274.274,0,0,0,.093-.21v-1.369a.408.408,0,0,0-.264-.435,4.619,4.619,0,0,0-1.665-.233,3.354,3.354,0,0,0-2.333.747,2.788,2.788,0,0,0-.824,2.178v.373h-1.447c-.218,0-.326.124-.326.373v1.368q0,.374.326.374H383.7v5.988A.29.29,0,0,0,384.024,330.616Zm-5.995-6.191v1.307a3.194,3.194,0,0,1-.536,2.085,1.992,1.992,0,0,1-1.594.622,2.241,2.241,0,0,1-1.664-.567,2.985,2.985,0,0,1-.56-2.093V324.3a4.122,4.122,0,0,1,.265-1.657,1.557,1.557,0,0,1,.739-.809,2.862,2.862,0,0,1,1.221-.226,2,2,0,0,1,1.61.615A3.48,3.48,0,0,1,378.03,324.424Zm-2.131-5.18q-2.784,0-3.912,1.314a5.681,5.681,0,0,0-1.128,3.8v1.369a5.67,5.67,0,0,0,1.112,3.741q1.112,1.33,3.85,1.33a6.2,6.2,0,0,0,3-.614,3.421,3.421,0,0,0,1.563-1.758,7.613,7.613,0,0,0,.459-2.823v-1.088a6,6,0,0,0-1.12-3.936Q378.606,319.245,375.9,319.245Z"
              transform="translate(-239.769 -208.405)" fill="#fff"/>
        <path              d="M503.006,391.658a5.779,5.779,0,0,0,3-.607,2.064,2.064,0,0,0,.964-1.882,1.769,1.769,0,0,0-.412-1.205,1.951,1.951,0,0,0-1.159-.615l-2.955-.545a.916.916,0,0,1-.4-.163.36.36,0,0,1-.116-.288.5.5,0,0,1,.187-.373.786.786,0,0,1,.451-.2q.342.031.56.031a3.624,3.624,0,0,0,2.38-.708,2.4,2.4,0,0,0,.856-1.951V380.6q0-.327-.3-.326H504.9q-.311,0-.311.326v2.333a1.3,1.3,0,0,1-1.493,1.493,1.293,1.293,0,0,1-1.462-1.462V380.6q0-.327-.3-.326h-1.183c-.187,0-.28.109-.28.326v2.458a2.478,2.478,0,0,0,1.8,2.489,2.071,2.071,0,0,0-.964.583,1.268,1.268,0,0,0-.4.864,1.118,1.118,0,0,0,.365.863,1.981,1.981,0,0,0,1.05.443l2.816.435a1.161,1.161,0,0,1,.529.179.45.45,0,0,1,.14.365.7.7,0,0,1-.5.631,3.445,3.445,0,0,1-1.384.225,9.443,9.443,0,0,1-3.173-.545.4.4,0,0,0-.14-.015.24.24,0,0,0-.178.069.244.244,0,0,0-.07.179v.964a.372.372,0,0,0,.218.358,4.186,4.186,0,0,0,1.268.365A10.458,10.458,0,0,0,503.006,391.658Zm-8.452-3.11h1.182q.28,0,.28-.311V383.29a.991.991,0,0,1,.218-.7,1.284,1.284,0,0,1,.716-.327l1.726-.248a.3.3,0,0,0,.265-.327v-1.276a.261.261,0,0,0-.3-.3,2.248,2.248,0,0,0-.661.156,4.844,4.844,0,0,0-.988.5,5.086,5.086,0,0,0-1.042.911l-.435-1.089a.7.7,0,0,0-.171-.249.382.382,0,0,0-.249-.077h-.545q-.28,0-.28.311v7.668C494.273,388.449,494.367,388.548,494.553,388.548Zm-3.442.171c.248,0,.549-.019.9-.055a3.247,3.247,0,0,0,.84-.179.39.39,0,0,0,.264-.389v-.933a.227.227,0,0,0-.233-.249,2.55,2.55,0,0,0-.28.062c-.073.01-.233.044-.482.1a2.988,2.988,0,0,1-.653.085,1.188,1.188,0,0,1-.692-.171.657.657,0,0,1-.241-.576V381.75h2.287a.286.286,0,0,0,.234-.078.372.372,0,0,0,.062-.234v-.84q0-.327-.3-.326h-2.287v-1.555q0-.327-.3-.326h-1.167c-.2,0-.3.109-.3.326v1.555H487.41q-.3,0-.3.311v.887q0,.279.3.279h1.369v4.838Q488.778,388.72,491.112,388.719Zm-8.22,0a4.308,4.308,0,0,0,2.59-.661,2.242,2.242,0,0,0,.895-1.921,2.349,2.349,0,0,0-.451-1.539,3.043,3.043,0,0,0-1.54-.855q-.778-.249-1.353-.389a2.971,2.971,0,0,1-.793-.35.626.626,0,0,1-.218-.536.734.734,0,0,1,.365-.653,1.889,1.889,0,0,1,1.019-.233,7.122,7.122,0,0,1,1.174.109,9.657,9.657,0,0,1,1.206.279l.187.032a.216.216,0,0,0,.233-.234v-.9a.32.32,0,0,0-.2-.311,6.038,6.038,0,0,0-2.645-.451,3.51,3.51,0,0,0-2.24.653,2.142,2.142,0,0,0-.825,1.773,2.187,2.187,0,0,0,.451,1.454,3.134,3.134,0,0,0,1.509.863l1.354.4a4.227,4.227,0,0,1,.692.257.665.665,0,0,1,.3.272.987.987,0,0,1,.078.436.823.823,0,0,1-.459.746,2.761,2.761,0,0,1-1.315.28,5.73,5.73,0,0,1-1.1-.125,6.582,6.582,0,0,1-1.143-.327.457.457,0,0,0-.171-.031.237.237,0,0,0-.163.063.217.217,0,0,0-.07.171v.979a.371.371,0,0,0,.062.2.309.309,0,0,0,.14.132,3.564,3.564,0,0,0,1.035.312A8.419,8.419,0,0,0,482.892,388.719Zm-8.268,0a3.837,3.837,0,0,0,1.361-.249,2.7,2.7,0,0,0,1.221-1.057l.4.855a.6.6,0,0,0,.163.218.374.374,0,0,0,.226.062h.56q.3,0,.3-.311v-7.67c0-.2-.093-.295-.28-.295h-1.182q-.3,0-.3.326v4.682a1.722,1.722,0,0,1-.591,1.462,2.15,2.15,0,0,1-1.338.451,1.52,1.52,0,0,1-1.3-.475,2.452,2.452,0,0,1-.35-1.455v-4.7c0-.2-.093-.295-.28-.295h-1.182a.273.273,0,0,0-.234.085.409.409,0,0,0-.062.241v4.775a3.7,3.7,0,0,0,.739,2.5A2.664,2.664,0,0,0,474.623,388.719Zm-8.218-1.54a1.574,1.574,0,0,1-1.524-.716,4.007,4.007,0,0,1-.389-1.912,4.068,4.068,0,0,1,.459-2.217,1.877,1.877,0,0,1,1.672-.677,1.7,1.7,0,0,1,1.252.474,1.56,1.56,0,0,1,.475,1.143v2.069a1.781,1.781,0,0,1-.513,1.33A1.947,1.947,0,0,1,466.405,387.179Zm-.389,1.54a3.106,3.106,0,0,0,1.392-.3,2.565,2.565,0,0,0,1.05-1.034l.451.933a.364.364,0,0,0,.374.234h.544q.28,0,.28-.311V377.209q0-.327-.3-.326h-1.167q-.3,0-.3.326v3.9a1.71,1.71,0,0,0-.863-.762,3.066,3.066,0,0,0-1.174-.233,3.226,3.226,0,0,0-2.745,1.136,5.344,5.344,0,0,0-.863,3.282,5.1,5.1,0,0,0,.824,3.033A2.856,2.856,0,0,0,466.016,388.719Zm-11.466-.171h1.167q.3,0,.3-.326v-4.947a1.361,1.361,0,0,1,.576-1.259,2.36,2.36,0,0,1,1.275-.358,1.646,1.646,0,0,1,1.369.467,2.376,2.376,0,0,1,.358,1.446v4.667q0,.311.28.311h1.2q.28,0,.28-.326v-4.713a3.819,3.819,0,0,0-.739-2.543,2.642,2.642,0,0,0-2.123-.863,2.719,2.719,0,0,0-2.535,1.353l-.435-.871a.838.838,0,0,0-.179-.241.367.367,0,0,0-.241-.07h-.545q-.3,0-.3.311v7.653Q454.254,388.548,454.55,388.548ZM451,379.184h1.4c.207,0,.311-.114.311-.342v-1.259a.487.487,0,0,0-.054-.257.249.249,0,0,0-.225-.085H451q-.311,0-.311.342v1.259C450.686,379.07,450.79,379.184,451,379.184Zm.125,9.364h1.167q.3,0,.3-.326V380.6q0-.327-.3-.326h-1.167q-.3,0-.3.311v7.653Q450.826,388.548,451.122,388.548Zm-6.394-3.858h4.153c.187,0,.28-.1.28-.3v-.669c0-.2-.089-.3-.264-.3h-4.2a.275.275,0,0,0-.2.078.3.3,0,0,0-.078.218v.669C444.416,384.591,444.52,384.69,444.728,384.69Zm-4.022-1h-3.08q.093-2.069,2.022-2.069a1.709,1.709,0,0,1,1.26.4,1.787,1.787,0,0,1,.389,1.284c0,.165-.05.272-.148.319A1.084,1.084,0,0,1,440.705,383.7Zm-.716,5.024a6.018,6.018,0,0,0,2.489-.4.408.408,0,0,0,.264-.389v-.855q0-.28-.248-.28l-.125.032a6.919,6.919,0,0,1-2.427.4,2.413,2.413,0,0,1-1.75-.545,2.318,2.318,0,0,1-.584-1.648h3.7a2.41,2.41,0,0,0,1.213-.256,1.049,1.049,0,0,0,.435-.988v-.264a3.4,3.4,0,0,0-.871-2.668,4.34,4.34,0,0,0-5.32.334,4.938,4.938,0,0,0-.933,3.282,4.492,4.492,0,0,0,1,3.213A4.22,4.22,0,0,0,439.99,388.719Zm-7.567,0a7.951,7.951,0,0,0,1.268-.1,3.663,3.663,0,0,0,1.066-.319.338.338,0,0,0,.2-.311v-.98c0-.156-.073-.233-.218-.233a.75.75,0,0,0-.171.015,5.8,5.8,0,0,1-1.151.288,7.309,7.309,0,0,1-1.089.1,2.09,2.09,0,0,1-1.765-.661,4.486,4.486,0,0,1,.023-4.184,2.255,2.255,0,0,1,1.9-.692,7.014,7.014,0,0,1,2.084.388.337.337,0,0,0,.156.032.207.207,0,0,0,.171-.078.267.267,0,0,0,.063-.171v-.948a.34.34,0,0,0-.2-.311,3.706,3.706,0,0,0-1.12-.326,9.065,9.065,0,0,0-1.4-.109,3.779,3.779,0,0,0-3,1.089,4.774,4.774,0,0,0-.949,3.219,4.444,4.444,0,0,0,1.027,3.321A4.381,4.381,0,0,0,432.423,388.719Zm-12.291-.171H421.3q.3,0,.3-.326v-4.947a1.362,1.362,0,0,1,.576-1.259,2.361,2.361,0,0,1,1.276-.358,1.646,1.646,0,0,1,1.369.467,2.378,2.378,0,0,1,.358,1.446v4.667q0,.311.28.311h1.2q.28,0,.28-.326v-4.713a3.819,3.819,0,0,0-.739-2.543,2.641,2.641,0,0,0-2.123-.863,2.719,2.719,0,0,0-2.535,1.353l-.435-.871a.837.837,0,0,0-.179-.241.366.366,0,0,0-.241-.07h-.545q-.3,0-.3.311v7.653C419.836,388.444,419.935,388.548,420.132,388.548Zm-3.968-4.853h-3.08q.093-2.069,2.022-2.069a1.707,1.707,0,0,1,1.26.4,1.785,1.785,0,0,1,.389,1.284c0,.165-.049.272-.148.319A1.082,1.082,0,0,1,416.164,383.7Zm-.716,5.024a6.019,6.019,0,0,0,2.489-.4.408.408,0,0,0,.264-.389v-.855q0-.28-.249-.28l-.124.032a6.919,6.919,0,0,1-2.427.4,2.414,2.414,0,0,1-1.75-.545,2.319,2.319,0,0,1-.583-1.648h3.7a2.41,2.41,0,0,0,1.213-.256,1.049,1.049,0,0,0,.435-.988v-.264a3.4,3.4,0,0,0-.871-2.668,4.34,4.34,0,0,0-5.32.334,4.938,4.938,0,0,0-.933,3.282,4.492,4.492,0,0,0,1,3.213A4.219,4.219,0,0,0,415.448,388.719Zm-7.116-9.535h1.4c.207,0,.311-.114.311-.342v-1.259a.49.49,0,0,0-.054-.257.25.25,0,0,0-.226-.085h-1.431q-.311,0-.311.342v1.259C408.021,379.07,408.124,379.184,408.332,379.184Zm.125,9.364h1.167q.3,0,.3-.326V380.6q0-.327-.3-.326h-1.167q-.3,0-.3.311v7.653Q408.161,388.548,408.456,388.548Zm-4.049.171a7.949,7.949,0,0,0,1.268-.1,3.669,3.669,0,0,0,1.066-.319.338.338,0,0,0,.2-.311v-.98c0-.156-.073-.233-.218-.233a.752.752,0,0,0-.171.015,5.794,5.794,0,0,1-1.151.288,7.312,7.312,0,0,1-1.089.1,2.091,2.091,0,0,1-1.765-.661,4.489,4.489,0,0,1,.023-4.184,2.256,2.256,0,0,1,1.9-.692,7.012,7.012,0,0,1,2.084.388.339.339,0,0,0,.156.032.208.208,0,0,0,.171-.078.267.267,0,0,0,.063-.171v-.948a.34.34,0,0,0-.2-.311,3.709,3.709,0,0,0-1.12-.326,9.065,9.065,0,0,0-1.4-.109,3.779,3.779,0,0,0-3,1.089,4.772,4.772,0,0,0-.949,3.219,4.444,4.444,0,0,0,1.027,3.321A4.38,4.38,0,0,0,404.408,388.719Zm-8.7,0a4.308,4.308,0,0,0,2.59-.661,2.242,2.242,0,0,0,.894-1.921,2.349,2.349,0,0,0-.451-1.539,3.046,3.046,0,0,0-1.54-.855q-.778-.249-1.353-.389a2.969,2.969,0,0,1-.793-.35.626.626,0,0,1-.218-.536.734.734,0,0,1,.365-.653,1.889,1.889,0,0,1,1.019-.233,7.122,7.122,0,0,1,1.174.109,9.659,9.659,0,0,1,1.206.279l.187.032a.216.216,0,0,0,.233-.234v-.9a.32.32,0,0,0-.2-.311,6.038,6.038,0,0,0-2.645-.451,3.511,3.511,0,0,0-2.24.653,2.142,2.142,0,0,0-.824,1.773,2.185,2.185,0,0,0,.451,1.454,3.134,3.134,0,0,0,1.509.863l1.354.4a4.206,4.206,0,0,1,.692.257.666.666,0,0,1,.3.272.987.987,0,0,1,.078.436.823.823,0,0,1-.459.746,2.761,2.761,0,0,1-1.315.28,5.729,5.729,0,0,1-1.1-.125,6.582,6.582,0,0,1-1.143-.327.457.457,0,0,0-.171-.031.237.237,0,0,0-.163.063.217.217,0,0,0-.07.171v.979a.37.37,0,0,0,.062.2.309.309,0,0,0,.14.132,3.563,3.563,0,0,0,1.035.312A8.421,8.421,0,0,0,395.709,388.719Zm-11.184-.171h1.182q.28,0,.28-.311V383.29a.991.991,0,0,1,.218-.7,1.282,1.282,0,0,1,.716-.327l1.726-.248a.3.3,0,0,0,.265-.327v-1.276a.261.261,0,0,0-.3-.3,2.247,2.247,0,0,0-.661.156,4.833,4.833,0,0,0-.987.5,5.084,5.084,0,0,0-1.042.911l-.435-1.089a.7.7,0,0,0-.171-.249.381.381,0,0,0-.249-.077h-.545q-.28,0-.28.311v7.668Q384.245,388.548,384.525,388.548Zm-5.445-1.307a1.763,1.763,0,0,1-1.532-.677,4.912,4.912,0,0,1,0-4.277,1.748,1.748,0,0,1,1.532-.693,1.705,1.705,0,0,1,1.509.7,3.723,3.723,0,0,1,.482,2.1,3.941,3.941,0,0,1-.467,2.122A1.678,1.678,0,0,1,379.08,387.241Zm0,1.478q3.8,0,3.8-4.309,0-4.293-3.8-4.292a3.794,3.794,0,0,0-2.831,1.011,5.921,5.921,0,0,0,0,6.572A3.78,3.78,0,0,0,379.08,388.719Zm-8.422-.171h1.167q.28,0,.28-.326V381.75h2.255c.2,0,.3-.108.3-.326v-.84q0-.311-.3-.311H372.1v-.732a1.176,1.176,0,0,1,.288-.926,1.494,1.494,0,0,1,.925-.256q.125,0,.731.047l.326.032a.321.321,0,0,0,.194-.063.215.215,0,0,0,.085-.187V377.4a.417.417,0,0,0-.234-.419,3.98,3.98,0,0,0-1.26-.141,2.435,2.435,0,0,0-2.8,2.753v.685h-1.478q-.311,0-.311.326v.825c0,.218.1.326.311.326h1.478v6.487C370.362,388.444,370.46,388.548,370.657,388.548Z"
              transform="translate(-238.26 -246.791)" fill="#fff"/>
        <path              d="M454.412,446.057h1.167q.3,0,.3-.326v-4.946a1.365,1.365,0,0,1,.575-1.26,2.37,2.37,0,0,1,1.276-.357,1.648,1.648,0,0,1,1.369.466,2.377,2.377,0,0,1,.358,1.446v4.667c0,.208.093.311.28.311h1.2q.28,0,.28-.326v-4.713a3.816,3.816,0,0,0-.739-2.543,2.639,2.639,0,0,0-2.123-.864,2.719,2.719,0,0,0-2.535,1.354l-.436-.87a.829.829,0,0,0-.179-.242.371.371,0,0,0-.241-.07h-.544q-.3,0-.3.312v7.652C454.117,445.953,454.216,446.057,454.412,446.057Zm-5.461-1.307a1.764,1.764,0,0,1-1.532-.676,4.913,4.913,0,0,1,0-4.277,1.748,1.748,0,0,1,1.532-.692,1.706,1.706,0,0,1,1.509.7,3.722,3.722,0,0,1,.482,2.1,3.942,3.942,0,0,1-.467,2.124A1.678,1.678,0,0,1,448.951,444.75Zm0,1.478q3.8,0,3.8-4.308,0-4.293-3.8-4.293a3.792,3.792,0,0,0-2.831,1.012,5.921,5.921,0,0,0,0,6.571A3.777,3.777,0,0,0,448.951,446.228Zm-6.789-9.535h1.4q.31,0,.311-.342v-1.26a.482.482,0,0,0-.055-.256.249.249,0,0,0-.225-.086h-1.431q-.311,0-.311.342v1.26C441.851,436.579,441.954,436.693,442.162,436.693Zm.125,9.364h1.167q.3,0,.3-.326v-7.622q0-.327-.3-.327h-1.167q-.3,0-.3.312v7.652C441.991,445.953,442.089,446.057,442.286,446.057Zm-3.464.172q.373,0,.9-.054a3.218,3.218,0,0,0,.84-.179.389.389,0,0,0,.264-.388v-.933a.228.228,0,0,0-.233-.25,2.689,2.689,0,0,0-.28.063q-.109.016-.482.1a2.931,2.931,0,0,1-.653.086,1.183,1.183,0,0,1-.692-.171.654.654,0,0,1-.241-.575V439.26h2.286a.289.289,0,0,0,.234-.078.371.371,0,0,0,.062-.233v-.841q0-.327-.3-.327h-2.286v-1.555q0-.327-.3-.327h-1.167c-.2,0-.3.109-.3.327v1.555h-1.369q-.3,0-.3.312v.886c0,.187.1.28.3.28h1.369V444.1Q436.489,446.228,438.823,446.228Zm-8.458-1.54a1.554,1.554,0,0,1-1.54-.739,4.435,4.435,0,0,1-.374-1.983,3.835,3.835,0,0,1,.459-2.085,1.761,1.761,0,0,1,1.594-.7,1.837,1.837,0,0,1,1.322.459,1.707,1.707,0,0,1,.483,1.3V442.7a2.08,2.08,0,0,1-.49,1.447A1.858,1.858,0,0,1,430.364,444.688Zm-.357,1.54a2.754,2.754,0,0,0,1.415-.373,2.418,2.418,0,0,0,.949-.964l.483.933a.4.4,0,0,0,.373.233h.575c.187,0,.28-.1.28-.295v-4.34q0-3.795-3.593-3.8a3.649,3.649,0,0,0-2.862,1.058,4.889,4.889,0,0,0-.949,3.328,5.178,5.178,0,0,0,.817,3.08A2.886,2.886,0,0,0,430.007,446.228Zm-8.362-.172h1.182c.187,0,.28-.1.28-.311V440.8a.993.993,0,0,1,.218-.7,1.284,1.284,0,0,1,.715-.327l1.726-.248a.294.294,0,0,0,.265-.327v-1.275a.262.262,0,0,0-.3-.3,2.248,2.248,0,0,0-.661.156,4.852,4.852,0,0,0-.988.506,5.092,5.092,0,0,0-1.042.91l-.435-1.089a.7.7,0,0,0-.171-.249.377.377,0,0,0-.249-.078h-.545q-.28,0-.28.312v7.668C421.365,445.959,421.458,446.057,421.645,446.057ZM416.2,444.75a1.763,1.763,0,0,1-1.532-.676,4.913,4.913,0,0,1,0-4.277,1.747,1.747,0,0,1,1.532-.692,1.706,1.706,0,0,1,1.509.7,3.722,3.722,0,0,1,.482,2.1,3.944,3.944,0,0,1-.467,2.124A1.678,1.678,0,0,1,416.2,444.75Zm0,1.478q3.8,0,3.8-4.308,0-4.293-3.8-4.293a3.792,3.792,0,0,0-2.831,1.012,5.921,5.921,0,0,0,0,6.571A3.777,3.777,0,0,0,416.2,446.228Zm-8.756-1.54a1.8,1.8,0,0,1-1.3-.5,1.614,1.614,0,0,1-.521-1.214v-2.021a1.667,1.667,0,0,1,.521-1.345,2.1,2.1,0,0,1,1.408-.444,1.6,1.6,0,0,1,1.525.715,3.929,3.929,0,0,1,.4,1.929,4.151,4.151,0,0,1-.444,2.2A1.762,1.762,0,0,1,407.444,444.688Zm.389,1.54a2.931,2.931,0,0,0,2.629-1.182,5.907,5.907,0,0,0,.793-3.313,4.936,4.936,0,0,0-.832-2.939,2.85,2.85,0,0,0-2.481-1.167,2.439,2.439,0,0,0-2.318,1.323v-4.231c0-.218-.1-.326-.3-.326h-1.183q-.28,0-.28.342v11.012c0,.208.093.311.28.311h.545a.41.41,0,0,0,.389-.248l.435-.9A2.48,2.48,0,0,0,407.833,446.228Zm-9.35-1.54a1.554,1.554,0,0,1-1.54-.739,4.436,4.436,0,0,1-.373-1.983,3.835,3.835,0,0,1,.459-2.085,1.761,1.761,0,0,1,1.595-.7,1.836,1.836,0,0,1,1.322.459,1.707,1.707,0,0,1,.483,1.3V442.7a2.082,2.082,0,0,1-.49,1.447A1.858,1.858,0,0,1,398.483,444.688Zm-.358,1.54a2.754,2.754,0,0,0,1.415-.373,2.418,2.418,0,0,0,.949-.964l.483.933a.4.4,0,0,0,.373.233h.575c.187,0,.28-.1.28-.295v-4.34q0-3.795-3.593-3.8a3.649,3.649,0,0,0-2.862,1.058,4.889,4.889,0,0,0-.949,3.328,5.178,5.178,0,0,0,.817,3.08A2.886,2.886,0,0,0,398.125,446.228Zm-5.436,0a3.9,3.9,0,0,0,1.229-.156.466.466,0,0,0,.21-.14.413.413,0,0,0,.054-.234v-.855a.263.263,0,0,0-.07-.195.224.224,0,0,0-.163-.069.349.349,0,0,0-.125.023.316.316,0,0,1-.109.023,2.421,2.421,0,0,1-.544.078.635.635,0,0,1-.412-.1.4.4,0,0,1-.117-.319v-9.566q0-.327-.3-.326h-1.135q-.28,0-.28.326v9.862a1.591,1.591,0,0,0,.451,1.236A1.873,1.873,0,0,0,392.689,446.228Zm-4.212,0a3.9,3.9,0,0,0,1.229-.156.466.466,0,0,0,.21-.14.413.413,0,0,0,.054-.234v-.855a.263.263,0,0,0-.07-.195.224.224,0,0,0-.163-.069.347.347,0,0,0-.125.023.316.316,0,0,1-.109.023,2.421,2.421,0,0,1-.544.078.635.635,0,0,1-.412-.1.4.4,0,0,1-.117-.319v-9.566q0-.327-.3-.326H387q-.28,0-.28.326v9.862a1.592,1.592,0,0,0,.451,1.236A1.872,1.872,0,0,0,388.477,446.228Zm-6.923-1.478a1.764,1.764,0,0,1-1.532-.676,4.913,4.913,0,0,1,0-4.277,1.748,1.748,0,0,1,1.532-.692,1.705,1.705,0,0,1,1.509.7,3.719,3.719,0,0,1,.482,2.1,3.944,3.944,0,0,1-.467,2.124A1.678,1.678,0,0,1,381.554,444.75Zm0,1.478q3.8,0,3.8-4.308,0-4.293-3.8-4.293a3.792,3.792,0,0,0-2.831,1.012,5.921,5.921,0,0,0,0,6.571A3.778,3.778,0,0,0,381.554,446.228Zm-7.24,0a8.071,8.071,0,0,0,1.268-.1,3.7,3.7,0,0,0,1.065-.319.339.339,0,0,0,.2-.311v-.98c0-.156-.073-.234-.218-.234a.741.741,0,0,0-.171.016,5.873,5.873,0,0,1-1.151.287,7.28,7.28,0,0,1-1.089.1,2.093,2.093,0,0,1-1.765-.661,4.49,4.49,0,0,1,.023-4.184,2.256,2.256,0,0,1,1.9-.692,7,7,0,0,1,2.084.389.345.345,0,0,0,.156.031.206.206,0,0,0,.171-.078.269.269,0,0,0,.062-.171v-.949a.339.339,0,0,0-.2-.311,3.7,3.7,0,0,0-1.12-.327,9.1,9.1,0,0,0-1.4-.109,3.779,3.779,0,0,0-3,1.089,4.776,4.776,0,0,0-.949,3.22,4.44,4.44,0,0,0,1.027,3.32A4.374,4.374,0,0,0,374.314,446.228Z"
              transform="translate(-239.319 -284.754)" fill="#fff"/>
        <path              d="M117.854,45.547c.057,0,.112-.007.165-.007V36.271c-.054,0-.109.007-.165.007A34.781,34.781,0,0,1,83.144,2.671h-9.3a66.359,66.359,0,0,1-4.34,22.547A53.522,53.522,0,0,1,64.025,2.941c0-.09.007-.18.009-.27H59.383c0,.1.007.205.01.308a52.065,52.065,0,0,1-5.375,21.685A67.594,67.594,0,0,1,49.96,2.671H47.788A40.682,40.682,0,0,1,7.341,42.153v2.062A42.768,42.768,0,0,0,48.634,11.693a69.407,69.407,0,0,0,4.1,15.4A52.425,52.425,0,0,1,7.341,53.91v4.636A57.02,57.02,0,0,0,55.022,32.27a70.071,70.071,0,0,0,5.469,9.258A66.616,66.616,0,0,1,7.341,68.215v9.269A75.842,75.842,0,0,0,66.458,48.946a69.773,69.773,0,0,0,51.4,22.547c.057,0,.112,0,.165,0V69.431l-.165,0A67.727,67.727,0,0,1,67.742,47.3a76.238,76.238,0,0,0,5.379-8.143A58.372,58.372,0,0,0,117.858,60.01l.162,0V55.375l-.162,0a53.777,53.777,0,0,1-42.38-20.668,75.486,75.486,0,0,0,4.347-11.042A44.039,44.039,0,0,0,117.854,45.547ZM61.772,39.765a67.932,67.932,0,0,1-5.471-9.58,56.736,56.736,0,0,0,5.379-12.4,58.21,58.21,0,0,0,5.475,12.852A66.734,66.734,0,0,1,61.772,39.765Z"
              fill="#fff"/>
    </g>
</svg>
